<svg width="60" height="60" viewBox="0 0 60 60" fill="none" xmlns="http://www.w3.org/2000/svg">
<path d="M60 30C60 46.5685 46.5685 60 30 60C13.4315 60 0 46.5685 0 30C0 13.4315 13.4315 0 30 0C46.5685 0 60 13.4315 60 30ZM3 30C3 44.9117 15.0883 57 30 57C44.9117 57 57 44.9117 57 30C57 15.0883 44.9117 3 30 3C15.0883 3 3 15.0883 3 30Z" fill="#D9D9D9"/>
<path d="M30.7071 13.2929C30.3166 12.9024 29.6834 12.9024 29.2929 13.2929L22.9289 19.6569C22.5384 20.0474 22.5384 20.6805 22.9289 21.0711C23.3195 21.4616 23.9526 21.4616 24.3431 21.0711L30 15.4142L35.6569 21.0711C36.0474 21.4616 36.6805 21.4616 37.0711 21.0711C37.4616 20.6805 37.4616 20.0474 37.0711 19.6569L30.7071 13.2929ZM31 46L31 14H29L29 46H31Z" fill="white"/>
</svg>
