<svg width="289" height="283" viewBox="0 0 289 283" fill="none" xmlns="http://www.w3.org/2000/svg">
<g opacity="0.4">
<path d="M249.462 202.333C251.161 199.394 252.216 196.083 252.216 193.109V89.8902C252.216 86.9166 251.162 83.6059 249.463 80.667L144 141.5L249.462 202.333Z" fill="#00599C"/>
<path d="M153.372 260.937L242.844 209.327C245.422 207.841 247.764 205.273 249.462 202.334L144 141.5L38.5377 202.334C40.2359 205.273 42.5792 207.841 45.1559 209.327L134.628 260.937C139.782 263.91 148.218 263.91 153.372 260.937Z" fill="#004482"/>
<path d="M249.463 80.6667C247.764 77.727 245.421 75.1598 242.844 73.673L153.372 22.0637C148.218 19.0901 139.782 19.0901 134.628 22.0637L45.1558 73.673C40.0011 76.6458 35.7842 83.9441 35.7842 89.8905V193.11C35.7842 196.083 36.8388 199.395 38.5377 202.334L144 141.501L249.463 80.6667Z" fill="#659AD2"/>
<path d="M144 213.578C104.22 213.578 71.8561 181.244 71.8561 141.5C71.8561 101.756 104.22 69.4224 144 69.4224C169.669 69.4224 193.609 83.2232 206.476 105.439L175.254 123.489C168.814 112.37 156.837 105.461 144 105.461C124.109 105.461 107.928 121.628 107.928 141.5C107.928 161.372 124.109 177.539 144 177.539C156.839 177.539 168.815 170.631 175.256 159.509L206.478 177.559C193.611 199.777 169.67 213.578 144 213.578Z" fill="white"/>
<path d="M208.127 129.487H200.112V137.496H192.096V145.504H200.112V153.513H208.127V145.504H216.144V137.496H208.127V129.487ZM238.187 129.487H230.172V137.496H222.156V145.504H230.172V153.513H238.187V145.504H246.204V137.496H238.187V129.487Z" fill="white"/>
</g>
</svg>
