<svg width="238" height="238" viewBox="0 0 238 238" fill="none" xmlns="http://www.w3.org/2000/svg">
<g opacity="0.4">
<path d="M33.1699 214.209L14.0718 0H223.928L204.81 214.175L118.872 238L33.1699 214.209Z" fill="#264DE4"/>
<path d="M188.442 200.537L204.78 17.5142H119V219.789L188.442 200.537Z" fill="#2965F1"/>
<path d="M57.8544 96.962L60.2089 123.234H119V96.962H57.8544ZM55.5112 70.0591H119V43.7871H53.1228L55.5112 70.0591ZM119 165.193L118.885 165.223L89.6256 157.323L87.7555 136.37H61.3821L65.0632 177.62L118.879 192.56L119 192.526V165.193Z" fill="#EBEBEB"/>
<path d="M118.909 96.962V123.234H151.26L148.211 157.306L118.909 165.215V192.547L172.768 177.62L173.163 173.181L179.336 104.016L179.978 96.962L184.72 43.7871H118.909V70.0591H155.929L153.538 96.962H118.909Z" fill="white"/>
</g>
</svg>
