<svg width="156" height="234" viewBox="0 0 156 234" fill="none" xmlns="http://www.w3.org/2000/svg">
<g opacity="0.4" clip-path="url(#clip0_87_4791)">
<path d="M39.0078 234C60.5315 234 78 216.528 78 195V156H39.0078C17.4841 156 0.015625 173.472 0.015625 195C0.015625 216.528 17.4841 234 39.0078 234Z" fill="#0ACF83"/>
<path d="M0.015625 117C0.015625 95.472 17.4841 78 39.0078 78H78V156H39.0078C17.4841 156 0.015625 138.528 0.015625 117Z" fill="#A259FF"/>
<path d="M0.015625 39C0.015625 17.472 17.4841 0 39.0078 0H78V78H39.0078C17.4841 78 0.015625 60.528 0.015625 39Z" fill="#F24E1E"/>
<path d="M78 0H116.992C138.516 0 155.984 17.472 155.984 39C155.984 60.528 138.516 78 116.992 78H78V0Z" fill="#FF7262"/>
<path d="M155.984 117C155.984 138.528 138.516 156 116.992 156C95.4685 156 78 138.528 78 117C78 95.472 95.4685 78 116.992 78C138.516 78 155.984 95.472 155.984 117Z" fill="#1ABCFE"/>
</g>
<defs>
<clipPath id="clip0_87_4791">
<rect width="156" height="234" fill="white"/>
</clipPath>
</defs>
</svg>
