<svg width="227" height="227" viewBox="0 0 227 227" fill="none" xmlns="http://www.w3.org/2000/svg">
<g opacity="0.4" clip-path="url(#clip0_83_4822)">
<mask id="mask0_83_4822" style="mask-type:luminance" maskUnits="userSpaceOnUse" x="0" y="0" width="227" height="227">
<path d="M0 0.278809H226.721V227H0V0.278809Z" fill="white"/>
</mask>
<g mask="url(#mask0_83_4822)">
<path d="M222.45 103.544L123.458 4.55993C122.102 3.20302 120.492 2.1266 118.72 1.39219C116.948 0.657788 115.048 0.279785 113.13 0.279785C111.212 0.279785 109.312 0.657788 107.54 1.39219C105.768 2.1266 104.157 3.20302 102.801 4.55993L82.253 25.1182L108.323 51.1887C111.388 50.1478 114.684 49.9853 117.836 50.7196C120.989 51.4538 123.873 53.0556 126.163 55.3438C128.465 57.6485 130.072 60.5547 130.8 63.7299C131.529 66.9052 131.349 70.2213 130.281 73.299L155.416 98.4269C158.495 97.3577 161.812 97.1776 164.988 97.9072C168.164 98.6369 171.071 100.247 173.374 102.552C174.987 104.165 176.267 106.08 177.14 108.188C178.013 110.296 178.463 112.555 178.463 114.836C178.463 117.118 178.013 119.377 177.14 121.484C176.267 123.592 174.987 125.507 173.374 127.12C170.112 130.378 165.69 132.209 161.08 132.209C156.47 132.209 152.048 130.378 148.786 127.12C146.363 124.693 144.712 121.604 144.041 118.241C143.371 114.877 143.71 111.391 145.016 108.22L121.576 84.7872V146.465C124.05 147.687 126.197 149.481 127.84 151.698C129.483 153.915 130.573 156.492 131.022 159.215C131.471 161.938 131.264 164.728 130.419 167.355C129.575 169.982 128.116 172.37 126.165 174.321C124.552 175.935 122.637 177.215 120.529 178.088C118.422 178.961 116.163 179.41 113.881 179.41C111.6 179.41 109.341 178.961 107.233 178.088C105.125 177.215 103.21 175.935 101.597 174.321C99.9836 172.708 98.7035 170.793 97.8301 168.685C96.9568 166.577 96.5072 164.318 96.5072 162.036C96.5072 159.755 96.9568 157.495 97.8301 155.387C98.7035 153.279 99.9836 151.364 101.597 149.751C103.223 148.122 105.155 146.832 107.282 145.954V83.7089C105.164 82.8363 103.239 81.5538 101.617 79.9349C99.9959 78.3161 98.7104 76.3929 97.8346 74.2757C96.9587 72.1586 96.5098 69.8893 96.5136 67.5982C96.5174 65.307 96.9739 63.0392 97.8568 60.925L72.1515 35.2148L4.26859 103.08C1.53314 105.821 -0.00317383 109.535 -0.00317383 113.408C-0.00317383 117.28 1.53314 120.994 4.26859 123.735L103.265 222.732C106.006 225.466 109.72 227.002 113.591 227.002C117.463 227.002 121.177 225.466 123.917 222.732L222.45 124.199C225.186 121.458 226.722 117.744 226.722 113.872C226.722 109.999 225.186 106.285 222.45 103.544Z" fill="#F03C2E"/>
</g>
</g>
<defs>
<clipPath id="clip0_83_4822">
<rect width="227" height="227" fill="white"/>
</clipPath>
</defs>
</svg>
