<svg width="64" height="65" viewBox="0 0 64 65" fill="none" xmlns="http://www.w3.org/2000/svg">
<ellipse cx="32" cy="32.5" rx="32" ry="32.5" fill="white"/>
<path fill-rule="evenodd" clip-rule="evenodd" d="M32 2C15.425 2 2 15.7646 2 32.7588C2 46.3696 10.5875 57.8657 22.5125 61.9412C24.0125 62.2104 24.575 61.2876 24.575 60.4802C24.575 59.7497 24.5375 57.3274 24.5375 54.7514C17 56.174 15.05 52.8674 14.45 51.1372C14.1125 50.2529 12.65 47.523 11.375 46.7925C10.325 46.2158 8.825 44.7932 11.3375 44.7547C13.7 44.7163 15.3875 46.9848 15.95 47.9075C18.65 52.5598 22.9625 51.2526 24.6875 50.4451C24.95 48.4458 25.7375 47.1001 26.6 46.3311C19.925 45.5622 12.95 42.9092 12.95 31.144C12.95 27.799 14.1125 25.0307 16.025 22.8775C15.725 22.1086 14.675 18.9558 16.325 14.7265C16.325 14.7265 18.8375 13.919 24.575 17.8792C26.975 17.1872 29.525 16.8411 32.075 16.8411C34.625 16.8411 37.175 17.1872 39.575 17.8792C45.3125 13.8806 47.825 14.7265 47.825 14.7265C49.475 18.9558 48.425 22.1086 48.125 22.8775C50.0375 25.0307 51.2 27.7605 51.2 31.144C51.2 42.9477 44.1875 45.5622 37.5125 46.3311C38.6 47.2924 39.5375 49.1379 39.5375 52.0215C39.5375 56.1355 39.5 59.4421 39.5 60.4802C39.5 61.2876 40.0625 62.2488 41.5625 61.9412C53.4125 57.8657 62 46.3311 62 32.7588C62 15.7646 48.575 2 32 2Z" fill="#1B1F23"/>
</svg>
