<svg width="244" height="244" viewBox="0 0 244 244" fill="none" xmlns="http://www.w3.org/2000/svg">
<g opacity="0.4">
<path d="M26.2862 179.56L35.0553 184.623L132.747 15.4209L123.978 10.3579L26.2862 179.56Z" fill="#E535AB"/>
<path d="M219.661 166.042H24.2781V176.168H219.661V166.042Z" fill="#E535AB"/>
<path d="M28.1442 171.731L125.872 228.156L130.935 219.387L33.2072 162.962L28.1442 171.731Z" fill="#E535AB"/>
<path d="M113.041 24.6727L210.769 81.0977L215.832 72.3285L118.104 15.9035L113.041 24.6727Z" fill="#E535AB"/>
<path d="M28.1713 72.29L33.2343 81.0591L130.962 24.6341L125.899 15.865L28.1713 72.29Z" fill="#E535AB"/>
<path d="M111.275 15.4228L208.967 184.625L217.736 179.562L120.044 10.3598L111.275 15.4228Z" fill="#E535AB"/>
<path d="M42.151 65.5752H32.025V178.425H42.151V65.5752Z" fill="#E535AB"/>
<path d="M211.975 65.5752H201.849V178.425H211.975V65.5752Z" fill="#E535AB"/>
<path d="M119.726 216.21L124.148 223.87L209.145 174.795L204.723 167.135L119.726 216.21Z" fill="#E535AB"/>
<path d="M225.395 181.719C219.539 191.906 206.485 195.383 196.298 189.527C186.111 183.671 182.634 170.617 188.49 160.43C194.346 150.243 207.4 146.766 217.587 152.622C227.835 158.539 231.312 171.532 225.395 181.719Z" fill="#E535AB"/>
<path d="M55.4491 83.57C49.5931 93.757 36.5391 97.234 26.3521 91.378C16.1651 85.522 12.6881 72.468 18.5441 62.281C24.4001 52.094 37.4541 48.617 47.6411 54.473C57.8281 60.39 61.3051 73.383 55.4491 83.57Z" fill="#E535AB"/>
<path d="M18.6051 181.719C12.7491 171.532 16.2261 158.539 26.4131 152.622C36.6001 146.766 49.5931 150.243 55.5101 160.43C61.3661 170.617 57.8891 183.61 47.7021 189.527C37.4541 195.383 24.4611 191.906 18.6051 181.719Z" fill="#E535AB"/>
<path d="M188.551 83.57C182.695 73.383 186.172 60.39 196.359 54.473C206.546 48.617 219.539 52.094 225.456 62.281C231.312 72.468 227.835 85.461 217.648 91.378C207.461 97.234 194.407 93.757 188.551 83.57Z" fill="#E535AB"/>
<path d="M122 241.438C110.227 241.438 100.711 231.922 100.711 220.149C100.711 208.376 110.227 198.86 122 198.86C133.773 198.86 143.289 208.376 143.289 220.149C143.289 231.861 133.773 241.438 122 241.438Z" fill="#E535AB"/>
<path d="M122 45.14C110.227 45.14 100.711 35.624 100.711 23.851C100.711 12.078 110.227 2.56201 122 2.56201C133.773 2.56201 143.289 12.078 143.289 23.851C143.289 35.624 133.773 45.14 122 45.14Z" fill="#E535AB"/>
</g>
</svg>
