<svg width="64" height="65" viewBox="0 0 64 65" fill="none" xmlns="http://www.w3.org/2000/svg">
<path d="M32.0104 0.5C18.6507 0.5 14.7435 0.513786 13.9841 0.576807C11.2424 0.804764 9.5364 1.23655 7.67779 2.16217C6.24544 2.87362 5.11581 3.6983 4.00094 4.85434C1.97056 6.96258 0.740018 9.55627 0.294563 12.6394C0.0779888 14.1361 0.0149852 14.4414 0.00218762 22.0866C-0.00273453 24.635 0.00218762 27.9888 0.00218762 32.4874C0.00218762 45.84 0.0169541 49.7443 0.080942 50.5025C0.302439 53.171 0.720822 54.85 1.60681 56.6864C3.30003 60.2018 6.53388 62.8408 10.3436 63.8255C11.6628 64.1652 13.1197 64.3523 14.9901 64.4409C15.7826 64.4754 23.8599 64.5 31.942 64.5C40.0242 64.5 48.1064 64.4902 48.8792 64.4508C51.0449 64.3489 52.3025 64.18 53.693 63.8206C57.5274 62.8309 60.7022 60.2313 62.4298 56.6667C63.2986 54.8746 63.7391 53.1317 63.9385 50.6025C63.9818 50.051 64 41.2591 64 32.4791C64 23.6975 63.9803 14.9219 63.937 14.3705C63.7352 11.8004 63.2947 10.0723 62.3978 8.24564C61.662 6.75038 60.8449 5.63373 59.6587 4.49197C57.5416 2.4694 54.9526 1.23852 51.8674 0.79344C50.3725 0.577299 50.0747 0.513293 42.4257 0.5H32.0104Z" fill="url(#paint0_radial_29_4742)"/>
<path d="M32.0104 0.5C18.6507 0.5 14.7435 0.513786 13.9841 0.576807C11.2424 0.804764 9.5364 1.23655 7.67779 2.16217C6.24544 2.87362 5.11581 3.6983 4.00094 4.85434C1.97056 6.96258 0.740018 9.55627 0.294563 12.6394C0.0779888 14.1361 0.0149852 14.4414 0.00218762 22.0866C-0.00273453 24.635 0.00218762 27.9888 0.00218762 32.4874C0.00218762 45.84 0.0169541 49.7443 0.080942 50.5025C0.302439 53.171 0.720822 54.85 1.60681 56.6864C3.30003 60.2018 6.53388 62.8408 10.3436 63.8255C11.6628 64.1652 13.1197 64.3523 14.9901 64.4409C15.7826 64.4754 23.8599 64.5 31.942 64.5C40.0242 64.5 48.1064 64.4902 48.8792 64.4508C51.0449 64.3489 52.3025 64.18 53.693 63.8206C57.5274 62.8309 60.7022 60.2313 62.4298 56.6667C63.2986 54.8746 63.7391 53.1317 63.9385 50.6025C63.9818 50.051 64 41.2591 64 32.4791C64 23.6975 63.9803 14.9219 63.937 14.3705C63.7352 11.8004 63.2947 10.0723 62.3978 8.24564C61.662 6.75038 60.8449 5.63373 59.6587 4.49197C57.5416 2.4694 54.9526 1.23852 51.8674 0.79344C50.3725 0.577299 50.0747 0.513293 42.4257 0.5H32.0104Z" fill="url(#paint1_radial_29_4742)"/>
<path d="M31.9957 8.86987C25.5792 8.86987 24.7739 8.89794 22.2538 9.01265C19.7386 9.12786 18.0217 9.52617 16.5195 10.1106C14.9655 10.7142 13.6474 11.5217 12.3342 12.8357C11.0199 14.1493 10.2127 15.4678 9.60729 17.0217C9.02155 18.5248 8.62286 20.2427 8.50965 22.7576C8.39693 25.2784 8.3674 26.0844 8.3674 32.5026C8.3674 38.9209 8.39595 39.7239 8.51014 42.2448C8.62581 44.7607 9.02402 46.478 9.60778 47.9806C10.2117 49.535 11.019 50.8535 12.3327 52.1671C13.6454 53.4817 14.9636 54.2911 16.5165 54.8947C18.0197 55.4791 19.7371 55.8774 22.2518 55.9926C24.7719 56.1073 25.5767 56.1354 31.9927 56.1354C38.4098 56.1354 39.2126 56.1073 41.7327 55.9926C44.2479 55.8774 45.9667 55.4791 47.47 54.8947C49.0234 54.2911 50.3396 53.4817 51.6523 52.1671C52.9665 50.8535 53.7738 49.535 54.3792 47.9811C54.96 46.478 55.3587 44.7602 55.4768 42.2453C55.59 39.7244 55.6196 38.9209 55.6196 32.5026C55.6196 26.0844 55.59 25.2789 55.4768 22.7581C55.3587 20.2422 54.96 18.5248 54.3792 17.0222C53.7738 15.4678 52.9665 14.1493 51.6523 12.8357C50.3381 11.5212 49.0239 10.7137 47.4685 10.1106C45.9623 9.52617 44.2445 9.12786 41.7293 9.01265C39.2091 8.89794 38.4068 8.86987 31.9883 8.86987H31.9957ZM29.8762 13.1287C30.5053 13.1277 31.2072 13.1287 31.9957 13.1287C38.3039 13.1287 39.0516 13.1513 41.5427 13.2646C43.8463 13.3699 45.0965 13.755 45.9293 14.0784C47.0319 14.5068 47.818 15.0188 48.6444 15.846C49.4713 16.6731 49.9832 17.4609 50.4124 18.5637C50.7358 19.3958 51.1212 20.6464 51.2261 22.9506C51.3393 25.4419 51.3639 26.1902 51.3639 32.4972C51.3639 38.8042 51.3393 39.5526 51.2261 42.0439C51.1207 44.3481 50.7358 45.5986 50.4124 46.4307C49.9842 47.5336 49.4713 48.3189 48.6444 49.1455C47.8175 49.9727 47.0324 50.4847 45.9293 50.9131C45.0975 51.238 43.8463 51.622 41.5427 51.7274C39.0521 51.8406 38.3039 51.8653 31.9957 51.8653C25.687 51.8653 24.9393 51.8406 22.4487 51.7274C20.1451 51.6211 18.8949 51.236 18.0616 50.9126C16.959 50.4842 16.1715 49.9722 15.3446 49.145C14.5176 48.3179 14.0057 47.5321 13.5765 46.4287C13.2531 45.5967 12.8677 44.3461 12.7629 42.0419C12.6497 39.5506 12.627 38.8022 12.627 32.4913C12.627 26.1804 12.6497 25.436 12.7629 22.9447C12.8682 20.6405 13.2531 19.3899 13.5765 18.5568C14.0047 17.454 14.5176 16.6662 15.3446 15.8391C16.1715 15.0119 16.959 14.4999 18.0616 14.0706C18.8944 13.7456 20.1451 13.3616 22.4487 13.2557C24.6282 13.1573 25.4729 13.1277 29.8762 13.1228V13.1287ZM44.6072 17.0527C43.042 17.0527 41.7721 18.3215 41.7721 19.8877C41.7721 21.4533 43.042 22.7236 44.6072 22.7236C46.1725 22.7236 47.4424 21.4533 47.4424 19.8877C47.4424 18.322 46.1725 17.0517 44.6072 17.0517V17.0527ZM31.9957 20.3662C25.2952 20.3662 19.8626 25.8003 19.8626 32.5026C19.8626 39.205 25.2952 44.6366 31.9957 44.6366C38.6962 44.6366 44.1268 39.205 44.1268 32.5026C44.1268 25.8003 38.6962 20.3662 31.9957 20.3662ZM31.9957 24.6251C36.3449 24.6251 39.8711 28.1518 39.8711 32.5026C39.8711 36.853 36.3449 40.3802 31.9957 40.3802C27.646 40.3802 24.1203 36.853 24.1203 32.5026C24.1203 28.1518 27.646 24.6251 31.9957 24.6251Z" fill="white"/>
<defs>
<radialGradient id="paint0_radial_29_4742" cx="0" cy="0" r="1" gradientUnits="userSpaceOnUse" gradientTransform="translate(17.0001 69.4293) rotate(-90) scale(63.4287 58.9937)">
<stop stop-color="#FFDD55"/>
<stop offset="0.1" stop-color="#FFDD55"/>
<stop offset="0.5" stop-color="#FF543E"/>
<stop offset="1" stop-color="#C837AB"/>
</radialGradient>
<radialGradient id="paint1_radial_29_4742" cx="0" cy="0" r="1" gradientUnits="userSpaceOnUse" gradientTransform="translate(-10.7203 5.11045) rotate(78.6806) scale(28.3529 116.872)">
<stop stop-color="#3771C8"/>
<stop offset="0.128" stop-color="#3771C8"/>
<stop offset="1" stop-color="#6600FF" stop-opacity="0"/>
</radialGradient>
</defs>
</svg>
