<svg width="244" height="244" viewBox="0 0 244 244" fill="none" xmlns="http://www.w3.org/2000/svg">
<g opacity="0.4">
<path d="M89.9513 188.622C89.9513 188.622 80.6438 194.035 96.5752 195.866C115.876 198.068 125.74 197.752 147.009 193.727C147.009 193.727 152.601 197.233 160.411 200.27C112.73 220.705 52.5011 199.086 89.9513 188.622Z" fill="#5382A1"/>
<path d="M84.1252 161.956C84.1252 161.956 73.6858 169.683 89.6291 171.333C110.246 173.46 126.528 173.634 154.703 168.208C154.703 168.208 158.599 172.159 164.727 174.32C107.079 191.177 42.8694 175.649 84.1252 161.956Z" fill="#5382A1"/>
<path d="M133.242 116.721C144.991 130.247 130.156 142.419 130.156 142.419C130.156 142.419 159.987 127.019 146.287 107.735C133.491 89.7516 123.679 80.8162 176.799 50.0083C176.799 50.0083 93.4176 70.8331 133.242 116.721Z" fill="#E76F00"/>
<path d="M196.303 208.346C196.303 208.346 203.191 214.021 188.717 218.412C161.196 226.749 74.1696 229.267 49.9941 218.744C41.3036 214.963 57.6007 209.717 62.7272 208.616C68.0735 207.457 71.1288 207.673 71.1288 207.673C61.4641 200.864 8.6602 221.041 44.307 226.819C141.521 242.585 221.519 219.72 196.303 208.346Z" fill="#5382A1"/>
<path d="M94.4274 134.327C94.4274 134.327 50.1603 144.841 78.7513 148.659C90.8233 150.275 114.889 149.91 137.305 148.031C155.624 146.486 174.02 143.2 174.02 143.2C174.02 143.2 167.56 145.967 162.886 149.158C117.934 160.98 31.0942 155.48 56.0942 143.387C77.2368 133.167 94.4274 134.327 94.4274 134.327Z" fill="#5382A1"/>
<path d="M173.837 178.714C219.533 154.968 198.405 132.149 183.658 135.223C180.043 135.976 178.432 136.628 178.432 136.628C178.432 136.628 179.773 134.526 182.336 133.616C211.511 123.359 233.948 163.867 172.918 179.911C172.918 179.911 173.625 179.279 173.837 178.714Z" fill="#5382A1"/>
<path d="M146.286 0.261719C146.286 0.261719 171.594 25.5775 122.284 64.5061C82.7418 95.7335 113.267 113.539 122.267 133.882C99.1859 113.057 82.2475 94.7245 93.6111 77.6626C110.29 52.6173 156.497 40.4744 146.286 0.261719Z" fill="#E76F00"/>
<path d="M98.9175 243.059C142.78 245.866 210.136 241.501 211.731 220.746C211.731 220.746 208.665 228.614 175.481 234.862C138.044 241.908 91.8695 241.085 64.4832 236.57C64.4832 236.57 70.0895 241.21 98.9175 243.059Z" fill="#5382A1"/>
</g>
</svg>
