<svg width="199" height="213" viewBox="0 0 199 213" fill="none" xmlns="http://www.w3.org/2000/svg">
<g opacity="0.4" clip-path="url(#clip0_84_4858)">
<path d="M112.619 15.462C116.14 21.5636 118.55 36.6961 119.816 56.7342H142.309V35.4654C141.823 35.2401 141.355 34.9801 140.904 34.6854C140.054 34.148 139.274 33.524 138.598 32.848L138.511 32.7613C137.314 31.5653 136.361 30.1265 135.702 28.5318C135.043 26.9544 134.678 25.221 134.678 23.401C134.678 21.5982 135.043 19.8822 135.702 18.2874C136.378 16.6407 137.384 15.1673 138.598 13.9366C139.829 12.7059 141.303 11.7179 142.951 11.0418C144.529 10.3831 146.263 10.0191 148.066 10.0191C149.87 10.0191 151.587 10.3831 153.182 11.0418C154.83 11.7179 156.304 12.7232 157.535 13.9366C158.766 15.1673 159.755 16.6407 160.431 18.2701L160.466 18.3741C161.09 19.9342 161.437 21.6329 161.437 23.3836C161.437 25.1864 161.073 26.9024 160.414 28.4972C159.738 30.1439 158.732 31.6173 157.518 32.848L157.414 32.952C156.807 33.5413 156.13 34.096 155.419 34.564C155.038 34.8241 154.639 35.0494 154.223 35.2747V62.7318C154.223 64.3785 153.547 65.8692 152.471 66.9439C151.396 68.0186 149.905 68.6947 148.257 68.6947H120.406C120.614 74.3975 120.753 80.3951 120.805 86.5833H173.594C173.819 86.1327 174.062 85.6993 174.322 85.2833L174.392 85.1966C174.895 84.4166 175.484 83.7059 176.109 83.0819C177.34 81.8512 178.814 80.8631 180.461 80.1871L180.565 80.1524C182.126 79.5284 183.826 79.1644 185.577 79.1644C187.381 79.1644 189.098 79.5284 190.693 80.1871C192.341 80.8631 193.815 81.8685 195.046 83.0819C196.277 84.3126 197.266 85.786 197.942 87.4327C198.601 89.0274 198.965 90.7435 198.965 92.5462C198.965 94.349 198.601 96.065 197.942 97.6598C197.266 99.3065 196.26 100.78 195.046 102.011C193.815 103.241 192.341 104.229 190.693 104.905L190.589 104.94C189.028 105.564 187.329 105.911 185.577 105.911C183.774 105.911 182.039 105.547 180.461 104.888C178.831 104.212 177.357 103.224 176.109 101.993C175.45 101.335 174.86 100.607 174.34 99.7918C174.062 99.3758 173.819 98.9425 173.594 98.4918H120.822C120.77 105.252 120.631 112.168 120.406 119.206H184.936C186.583 119.206 188.075 119.882 189.15 120.957C190.225 122.031 190.901 123.522 190.901 125.169V169.422C191.474 169.665 192.011 169.942 192.531 170.254C193.468 170.809 194.318 171.485 195.081 172.248C196.312 173.479 197.301 174.952 197.977 176.599L198.012 176.703C198.636 178.263 199 179.962 199 181.712C199 183.515 198.636 185.231 197.977 186.826C197.301 188.472 196.295 189.946 195.081 191.177C193.849 192.407 192.375 193.395 190.728 194.071C189.15 194.73 187.416 195.094 185.612 195.094C183.808 195.094 182.092 194.73 180.496 194.071C178.849 193.395 177.374 192.39 176.143 191.177C174.912 189.946 173.923 188.472 173.247 186.826C172.588 185.248 172.224 183.515 172.224 181.712C172.224 179.91 172.588 178.176 173.247 176.599C173.923 174.952 174.929 173.479 176.143 172.248C176.698 171.693 177.322 171.173 177.981 170.705C178.294 170.48 178.623 170.272 178.97 170.081V131.149H119.938C119.677 136.765 119.365 142.399 118.984 148.015H138.129C139.777 148.015 141.268 148.691 142.344 149.766C143.419 150.84 144.095 152.331 144.095 153.978V177.656C144.529 177.881 144.928 178.124 145.344 178.384C146.141 178.904 146.852 179.493 147.494 180.135L147.598 180.239C148.777 181.452 149.749 182.891 150.408 184.486C151.067 186.063 151.431 187.796 151.431 189.599C151.431 191.402 151.067 193.135 150.408 194.713L150.356 194.817C149.679 196.429 148.691 197.868 147.494 199.064L147.407 199.15C146.193 200.346 144.754 201.317 143.176 201.976C141.598 202.634 139.846 202.998 138.043 202.998C136.239 202.998 134.522 202.634 132.927 201.976C131.279 201.3 129.805 200.294 128.574 199.081L128.47 198.977C127.291 197.764 126.319 196.325 125.66 194.73C125.001 193.135 124.637 191.419 124.637 189.617C124.637 187.814 125.001 186.098 125.66 184.503C126.337 182.856 127.325 181.383 128.557 180.152C129.233 179.476 129.996 178.869 130.794 178.349C131.227 178.072 131.678 177.812 132.146 177.587V159.958H118.099C117.909 162.333 117.7 164.708 117.492 167.065C117.215 170.116 116.33 175.749 116.903 178.54C118.429 185.942 111.752 208.268 92.121 212.376C82.4441 214.387 72.4378 211.423 64.894 205.529C58.8589 200.832 54.3327 194.227 52.7025 186.756C49.5463 186.635 46.338 185.994 43.2164 184.954C36.3143 182.631 29.6723 178.107 24.487 172.109C19.267 166.094 15.4865 158.537 14.2899 150.13C13.6829 145.744 13.7696 141.168 14.7408 136.453C11.3591 133.385 8.4456 129.936 6.13911 126.174C2.11576 119.743 -0.0866851 112.498 2.51431e-05 105.044C0.0867354 97.5384 2.47994 89.9288 7.66521 82.8565C10.6827 78.7484 14.6541 74.8309 19.6832 71.2428C19.6312 69.8734 19.6312 68.504 19.6659 67.1519C20.0648 56.1969 24.1055 46.5592 30.0018 39.3656C36.1062 31.9119 44.2743 27.0411 52.6678 25.8451H52.7025C52.9973 24.6143 53.3442 23.401 53.7951 22.2222C56.5004 14.89 62.0672 8.64974 68.8826 4.68026C75.7501 0.693442 83.9876 -1.07462 92.0169 0.589438C99.7341 2.21883 107.087 6.82967 112.619 15.462ZM53.3615 171.971C56.2056 163.026 63.7147 154.099 77.8832 146.871C81.4209 145.086 85.7218 146.472 87.5427 149.991C89.3289 153.527 87.9416 157.826 84.4211 159.646C71.2932 166.354 66.3507 174.051 66.3507 180.759C66.3507 185.994 69.3335 190.882 73.669 194.279C78.0739 197.694 83.7621 199.48 89.1382 198.37C95.8322 196.983 102.283 190.795 105.63 177.309V35.5174C102.283 22.1356 95.8322 15.982 89.1555 14.5953C84.7506 13.6766 80.0683 14.7166 76.0796 17.0567C72.0389 19.3968 68.7959 23.0023 67.2525 27.1624C65.2061 32.7093 66.4201 39.5216 73.3569 45.9351C76.2357 48.6219 76.4264 53.1114 73.7384 55.9889C71.0504 58.8663 66.5588 59.057 63.68 56.3702C58.2867 51.378 54.957 46.0738 53.2921 40.7869C49.0433 41.8097 44.8466 44.6178 41.4475 48.7432C37.4762 53.5794 34.7535 60.1317 34.476 67.6546C34.4066 69.648 34.5107 71.7628 34.8055 73.9295H34.7882C35.1697 76.7376 33.9211 79.6497 31.3544 81.2271C26.1518 84.4166 22.3192 87.9354 19.6312 91.5929C16.3709 96.0304 14.8795 100.693 14.8275 105.183C14.7754 109.742 16.1802 114.283 18.6948 118.357C20.8278 121.806 23.7413 124.961 27.2964 127.596C29.9671 129.433 31.2157 132.865 30.1232 136.072C28.7185 140.232 28.4063 144.271 28.9439 148.032C29.707 153.441 32.2215 158.381 35.6553 162.35C39.1063 166.337 43.4765 169.318 47.9508 170.844C49.7544 171.537 51.5753 171.884 53.3615 171.971ZM54.9917 71.2428C57.8011 68.4867 62.31 68.5213 65.0847 71.3294C67.8421 74.1375 67.8074 78.6444 64.998 81.4178C58.8763 87.45 55.6853 95.2157 55.3385 103.155C55.009 111.336 57.6623 119.761 63.2465 126.677C65.7264 129.745 65.2235 134.234 62.1539 136.713C59.0844 139.192 54.5928 138.689 52.1129 135.621C44.2916 125.931 40.5804 114.144 41.0487 102.583C41.5516 91.1075 46.1646 79.9098 54.9917 71.2428Z" fill="black"/>
</g>
<defs>
<clipPath id="clip0_84_4858">
<rect width="199" height="213" fill="white"/>
</clipPath>
</defs>
</svg>
