<svg width="64" height="65" viewBox="0 0 64 65" fill="none" xmlns="http://www.w3.org/2000/svg">
<path fill-rule="evenodd" clip-rule="evenodd" d="M7.11111 64.5H56.8889C60.8162 64.5 64 61.3162 64 57.3889V7.61111C64 3.68375 60.8162 0.5 56.8889 0.5H7.11111C3.18375 0.5 0 3.68375 0 7.61111V57.3889C0 61.3162 3.18375 64.5 7.11111 64.5Z" fill="#007EBB"/>
<path fill-rule="evenodd" clip-rule="evenodd" d="M55.1111 55.6109H45.6139V39.435C45.6139 35 43.9287 32.5216 40.4184 32.5216C36.5997 32.5216 34.6045 35.1008 34.6045 39.435V55.6109H25.4519V24.7961H34.6045V28.9468C34.6045 28.9468 37.3565 23.8546 43.8956 23.8546C50.4317 23.8546 55.1111 27.846 55.1111 36.1009V55.6109ZM14.5328 20.7611C11.4152 20.7611 8.88892 18.215 8.88892 15.0749C8.88892 11.9348 11.4152 9.38867 14.5328 9.38867C17.6504 9.38867 20.1751 11.9348 20.1751 15.0749C20.1751 18.215 17.6504 20.7611 14.5328 20.7611ZM9.80674 55.6109H19.3506V24.7961H9.80674V55.6109Z" fill="white"/>
</svg>
