<svg width="223" height="251" viewBox="0 0 223 251" fill="none" xmlns="http://www.w3.org/2000/svg">
<g opacity="0.4" clip-path="url(#clip0_24_4771)">
<path d="M222.625 73.6026C222.623 69.3931 221.723 65.6734 219.903 62.481C218.116 59.3418 215.439 56.7106 211.848 54.6303C182.209 37.5318 152.542 20.4856 122.912 3.36965C114.924 -1.24421 107.179 -1.07601 99.2507 3.60409C87.4535 10.565 28.3889 44.4212 10.7885 54.6207C3.54013 58.8189 0.0130664 65.2438 0.0113242 73.5947C0 107.981 0.0113242 142.366 0 176.753C0 180.87 0.863254 184.518 2.60283 187.662C4.39118 190.896 7.10551 193.6 10.7789 195.727C28.3802 205.927 87.4526 239.78 99.2472 246.743C107.179 251.426 114.924 251.593 122.915 246.977C152.545 229.861 182.215 212.815 211.858 195.717C215.531 193.59 218.246 190.885 220.034 187.653C221.771 184.509 222.636 180.862 222.636 176.744C222.636 176.744 222.636 107.99 222.625 73.6026Z" fill="#A179DC"/>
<path d="M111.659 124.839L2.60278 187.662C4.39114 190.896 7.10547 193.6 10.7789 195.727C28.3802 205.927 87.4525 239.78 99.2471 246.743C107.179 251.426 114.924 251.593 122.915 246.977C152.545 229.861 182.214 212.815 211.858 195.717C215.531 193.59 218.246 190.885 220.034 187.653L111.659 124.839Z" fill="#280068"/>
<path d="M222.624 73.6025C222.623 69.393 221.723 65.6734 219.903 62.481L111.658 124.839L220.034 187.653C221.771 184.509 222.634 180.861 222.636 176.743C222.636 176.743 222.636 107.99 222.624 73.6025Z" fill="#390091"/>
<path d="M175.867 101.354V113.096H187.604V101.354H193.472V113.096H205.209V118.968H193.472V130.71H205.209V136.582H193.472V148.324H187.604V136.582H175.867V148.324H169.999V136.582H158.262V130.71H169.999V118.968H158.262V113.096H169.999V101.354H175.867ZM187.604 118.968H175.867V130.71H187.604V118.968Z" fill="white"/>
<path d="M111.898 42.3789C142.511 42.3789 169.24 59.0131 183.556 83.7382L183.416 83.5002L147.398 104.25C140.301 92.2283 127.291 84.1157 112.368 83.9486L111.898 83.946C89.1401 83.946 70.6899 102.404 70.6899 125.174C70.6899 132.62 72.6741 139.599 76.1247 145.628C83.2276 158.034 96.5805 166.402 111.898 166.402C127.31 166.402 140.739 157.928 147.806 145.389L147.634 145.69L183.598 166.535C169.439 191.051 143.077 207.634 112.82 207.964L111.898 207.969C81.1879 207.969 54.3838 191.233 40.1037 166.377C33.1323 154.243 29.1436 140.175 29.1436 125.174C29.1436 79.4479 66.1932 42.3789 111.898 42.3789Z" fill="white"/>
</g>
<defs>
<clipPath id="clip0_24_4771">
<rect width="223" height="251" fill="white"/>
</clipPath>
</defs>
</svg>
