<svg width="214" height="214" viewBox="0 0 214 214" fill="none" xmlns="http://www.w3.org/2000/svg">
<g opacity="0.4">
<path d="M13.375 117.366L66.6744 95.832C72.0845 88.6824 78.1765 82.0753 84.8644 76.1038C89.2781 73.7632 97.5706 75.0338 112.751 56.1751C127.464 37.7845 132.145 22.0688 139.033 22.0688C149.934 22.0688 157.959 45.6088 170.13 81.2532C178.808 108.479 188.989 135.203 200.625 161.303C187.919 149.466 177.085 136.693 164.713 137.027C153.211 137.294 140.437 150.937 126.461 168.458C115.359 182.502 100.647 192.132 94.8956 191.931C94.8956 191.931 80.0494 149.934 67.6106 143.113C65.03 142.058 62.2364 141.63 59.4585 141.862C56.6805 142.095 53.997 142.982 51.6275 144.45L13.375 117.299V117.366Z" fill="#4499DD"/>
<path d="M132.412 26.8838C127.932 32.9025 122.515 43.9369 112.751 56.175C97.5706 75.0338 89.3449 73.7632 84.8643 76.1038C78.1445 82.0427 72.0494 88.6531 66.6743 95.8319L88.7431 111.949C107.468 86.4025 117.499 58.7163 125.324 40.7938C127.283 35.9622 129.655 31.3084 132.412 26.8838Z" fill="url(#paint0_linear_111_4751)"/>
<path d="M139.1 22.0688C124.521 22.0688 114.557 98.8414 60.7225 141.708C75.8363 139.234 88.9438 176.751 94.9625 191.931C121.713 187.384 143.113 136.224 164.713 137.027C177.085 137.495 187.919 149.466 200.625 161.303C171.601 100.313 158.026 22.0688 139.1 22.0688Z" fill="url(#paint1_linear_111_4751)"/>
</g>
<defs>
<linearGradient id="paint0_linear_111_4751" x1="112.37" y1="102.78" x2="100.399" y2="64.1265" gradientUnits="userSpaceOnUse">
<stop stop-color="#551122"/>
<stop offset="0.23" stop-color="#552233"/>
<stop offset="0.36" stop-color="#553344"/>
<stop offset="0.51" stop-color="#664455"/>
<stop offset="0.66" stop-color="#556688"/>
<stop offset="0.84" stop-color="#2299DD"/>
</linearGradient>
<linearGradient id="paint1_linear_111_4751" x1="198.686" y1="126.949" x2="78.3107" y2="97.3902" gradientUnits="userSpaceOnUse">
<stop offset="0.081" stop-color="#CC3333"/>
<stop offset="0.189" stop-color="#DE5239"/>
<stop offset="0.313" stop-color="#F06E3E"/>
<stop offset="0.421" stop-color="#FA8042"/>
<stop offset="0.5" stop-color="#FE8643"/>
<stop offset="0.58" stop-color="#FA7F42"/>
<stop offset="0.696" stop-color="#EF6C3E"/>
<stop offset="0.833" stop-color="#DC4C37"/>
<stop offset="0.916" stop-color="#CF3633"/>
</linearGradient>
</defs>
</svg>
