<svg width="266" height="266" viewBox="0 0 266 266" fill="none" xmlns="http://www.w3.org/2000/svg">
<g opacity="0.4">
<path d="M197.245 193.639C198.939 179.539 198.43 177.482 208.924 179.757L211.595 179.996C219.668 180.36 230.225 178.698 236.532 175.819C249.884 169.627 257.802 159.278 244.637 162C214.608 168.193 212.426 158.02 212.426 158.02C244.149 110.951 257.417 51.2047 245.957 36.5851C214.743 -3.31495 160.701 15.5544 159.797 16.0532L159.507 16.1051C153.584 14.8583 147.038 14.1309 139.453 14.027C125.862 13.8192 115.554 17.591 107.72 23.524C107.72 23.524 11.3258 -16.1889 15.8042 73.4718C16.7601 92.549 43.1315 217.901 74.6151 179.976C86.1383 166.115 97.2563 154.404 97.2563 154.404C102.763 158.072 109.382 159.943 116.313 159.267L116.853 158.81C116.693 160.606 116.766 162.415 117.071 164.192C108.967 173.253 111.356 174.843 95.147 178.178C78.7506 181.555 88.3931 187.571 94.669 189.151C102.296 191.062 119.939 193.764 131.867 177.077L131.39 178.978C134.569 181.524 134.351 197.266 134.818 208.508C135.286 219.751 136.024 230.256 138.32 236.438C140.616 242.621 143.308 258.57 164.608 254.102C182.407 250.289 196.019 244.792 197.266 193.733" fill="black"/>
<path d="M197.245 193.639C198.939 179.539 198.43 177.482 208.924 179.757L211.595 179.996C219.668 180.36 230.225 178.698 236.532 175.819C249.884 169.627 257.802 159.278 244.637 162C214.608 168.193 212.426 158.02 212.426 158.02C244.149 110.951 257.417 51.2047 245.957 36.5851C214.743 -3.31495 160.701 15.5544 159.797 16.0532L159.507 16.1051C153.584 14.8583 147.038 14.1309 139.453 14.027C125.862 13.8192 115.554 17.591 107.72 23.524C107.72 23.524 11.3258 -16.1889 15.8042 73.4718C16.7601 92.549 43.1315 217.901 74.6151 179.976C86.1383 166.115 97.2563 154.404 97.2563 154.404C102.763 158.072 109.382 159.943 116.313 159.267L116.853 158.81C116.693 160.606 116.766 162.415 117.071 164.192C108.967 173.253 111.356 174.843 95.147 178.178C78.7506 181.555 88.3931 187.571 94.669 189.151C102.296 191.062 119.939 193.764 131.867 177.077L131.39 178.978C134.569 181.524 134.351 197.266 134.818 208.508C135.286 219.751 136.024 230.256 138.32 236.438C140.616 242.621 143.308 258.57 164.608 254.102C182.407 250.289 196.019 244.792 197.266 193.733" stroke="black" stroke-width="5.3725"/>
<path d="M244.543 162.094C214.514 168.286 212.332 158.114 212.332 158.114C244.055 111.044 257.324 51.2983 245.873 36.6787C214.66 -3.22126 160.618 15.6585 159.714 16.1469L159.423 16.1988C152.823 14.8744 146.112 14.1751 139.38 14.1103C125.789 13.9025 115.481 17.6743 107.647 23.6073C107.647 23.6073 11.2426 -16.1056 15.7314 73.5551C16.6873 92.6323 43.0587 217.985 74.5423 180.059C86.1382 166.115 97.2562 154.405 97.2562 154.405C102.763 158.072 109.382 159.943 116.313 159.267L116.853 158.81C116.694 160.606 116.768 162.415 117.071 164.192C108.966 173.253 111.356 174.843 95.1469 178.178C78.7505 181.555 88.393 187.571 94.6689 189.151C102.296 191.063 119.939 193.764 131.867 177.077L131.389 178.978C134.569 181.524 136.793 195.531 136.418 208.228C136.044 220.925 135.795 229.633 138.289 236.449C140.783 243.265 143.276 258.581 164.577 254.113C182.376 250.3 191.593 240.397 192.892 223.918C193.806 212.197 195.863 213.922 196.009 203.448L197.671 198.482C199.573 182.584 197.983 177.461 208.945 179.851L211.615 180.09C219.689 180.454 230.256 178.791 236.449 175.913C249.801 169.72 257.708 159.371 244.543 162.094Z" fill="#336791"/>
<path d="M133.145 171.102C132.314 200.674 133.353 230.454 136.242 237.602C139.131 244.751 145.334 258.903 166.645 254.352C184.444 250.539 190.928 243.151 193.733 226.848L200.311 174.718M107.605 22.8592C107.605 22.8592 11.1388 -16.5836 15.6275 73.0771C16.5835 92.1543 42.9549 217.507 74.4385 179.581C85.9305 165.73 96.3211 154.893 96.3211 154.893M159.704 15.6585C156.379 16.6976 213.361 -5.1747 245.759 36.2112C257.189 50.8308 243.941 110.577 212.218 157.646" stroke="white" stroke-width="1.79" stroke-linecap="round" stroke-linejoin="round"/>
<path d="M212.229 157.625C212.229 157.625 214.307 167.808 244.439 161.595C257.604 158.872 249.676 169.221 236.335 175.414C225.383 180.506 200.82 181.804 200.414 174.791C199.375 156.659 213.34 162.166 212.332 157.625C211.418 153.531 205.163 149.521 201.048 139.504C197.443 130.776 151.589 63.7565 213.766 73.7003C216.052 73.2327 197.557 14.4738 139.37 13.6217C81.182 12.7697 83.0211 85.1612 83.0211 85.1612" stroke="white" stroke-width="1.79" stroke-linecap="round" stroke-linejoin="bevel"/>
<path d="M116.863 163.839C108.759 172.9 111.149 174.489 94.9392 177.825C78.5428 181.202 88.1853 187.218 94.4612 188.797C102.088 190.709 119.731 193.411 131.66 176.713C135.296 171.622 131.639 163.517 126.651 161.46C124.241 160.462 121.02 159.215 116.884 163.849L116.863 163.839Z" stroke="white" stroke-width="1.79" stroke-linejoin="round"/>
<path d="M116.333 163.683C115.502 158.353 118.079 152.025 120.833 144.606C124.968 133.488 134.507 122.37 126.88 87.0732C121.196 60.7849 83.0315 81.5973 83.0315 85.1613C83.0315 88.7253 84.7563 103.241 82.408 120.126C79.322 142.175 96.4354 160.815 116.136 158.914" stroke="white" stroke-width="1.79" stroke-linecap="round" stroke-linejoin="round"/>
<path d="M107.252 84.6315C107.075 85.8472 109.486 89.0994 112.614 89.5358C115.741 89.9723 118.412 87.4369 118.588 86.2108C118.765 84.9848 116.354 83.6548 113.227 83.2183C110.099 82.7819 107.408 83.4262 107.252 84.6315Z" fill="white" stroke="white" stroke-width="0.5975"/>
<path d="M202.472 82.1481C202.638 83.3638 200.238 86.616 197.11 87.0525C193.983 87.4889 191.291 84.9535 191.136 83.7274C190.98 82.5014 193.369 81.1714 196.497 80.7349C199.625 80.2985 202.316 80.9428 202.472 82.1481Z" fill="white" stroke="white" stroke-width="0.2975"/>
<path d="M213.652 73.7212C214.172 83.2806 211.595 89.7747 211.262 99.9471C210.784 114.723 218.307 131.639 206.971 148.575" stroke="white" stroke-width="1.79" stroke-linecap="round" stroke-linejoin="round"/>
</g>
</svg>
