<svg width="283" height="283" viewBox="0 0 283 283" fill="none" xmlns="http://www.w3.org/2000/svg">
<g opacity="0.4">
<path d="M140.759 37C87.694 37 91.0056 60.1082 91.0056 60.1082L91.0709 84.0494H141.706V91.2317H70.9462C70.9462 91.2317 37 87.3618 37 141.134C37 194.894 66.6352 192.992 66.6352 192.992H84.3235V168.04C84.3235 168.04 83.3698 138.281 113.488 138.281H163.705C163.705 138.281 191.923 138.74 191.923 110.896V64.8571C191.923 64.8571 196.208 37 140.759 37ZM112.835 53.0964C117.871 53.0964 121.947 57.1893 121.947 62.2465C121.947 67.3037 117.871 71.3966 112.835 71.3966C111.638 71.3983 110.452 71.1628 109.346 70.7036C108.24 70.2444 107.235 69.5705 106.388 68.7205C105.542 67.8704 104.871 66.8611 104.413 65.7501C103.956 64.6392 103.721 63.4486 103.723 62.2465C103.723 57.1893 107.799 53.0964 112.835 53.0964Z" fill="url(#paint0_linear_20_143)"/>
<path d="M142.241 245C195.306 245 191.994 222.039 191.994 222.039L191.929 198.25H141.294V191.114H212.047C212.047 191.114 246 194.959 246 141.535C246 88.1118 216.365 90.0083 216.365 90.0083H198.677V114.794C198.677 114.794 199.63 144.364 169.512 144.364H119.295C119.295 144.364 91.0768 143.908 91.0768 171.574V217.32C91.0768 217.32 86.7919 245 142.241 245ZM170.165 229.006C168.968 229.008 167.782 228.774 166.676 228.318C165.57 227.861 164.564 227.192 163.718 226.347C162.871 225.502 162.2 224.499 161.743 223.396C161.286 222.292 161.051 221.109 161.053 219.914C161.053 214.896 165.129 210.829 170.165 210.829C175.201 210.829 179.277 214.889 179.277 219.914C179.277 224.946 175.201 229.006 170.165 229.006Z" fill="url(#paint1_linear_20_143)"/>
</g>
<defs>
<linearGradient id="paint0_linear_20_143" x1="57.0855" y1="55.2478" x2="160.873" y2="158.949" gradientUnits="userSpaceOnUse">
<stop stop-color="#387EB8"/>
<stop offset="1" stop-color="#366994"/>
</linearGradient>
<linearGradient id="paint1_linear_20_143" x1="120.647" y1="121.488" x2="231.415" y2="227.843" gradientUnits="userSpaceOnUse">
<stop stop-color="#FFE052"/>
<stop offset="1" stop-color="#FFC331"/>
</linearGradient>
</defs>
</svg>
