<svg width="930" height="230" viewBox="0 0 930 230" fill="none" xmlns="http://www.w3.org/2000/svg">
<rect y="61" width="930" height="169" fill="#008D43"/>
<path d="M197.549 140.462C193.919 137.662 189.721 135.683 185.246 134.664C180.821 133.36 176.432 132.422 173.255 131.074C170.04 129.694 168.253 128.137 168.253 125.487C168.316 120.363 171.554 117.605 176.517 117.543C179.575 117.47 182.538 118.603 184.761 120.696C186.92 122.888 188.366 125.675 188.913 128.697H199.461V108.467H188.449L188.474 111.935C184.357 108.427 179.021 106.673 173.618 107.05C168.215 107.428 163.177 109.907 159.591 113.953C156.778 117.207 155.159 121.317 155 125.609C154.99 134.201 158.851 139.149 163.043 141.881C166.109 143.706 169.473 144.98 172.982 145.644C177.29 146.659 181.53 147.939 185.679 149.477C188.53 150.922 189.937 152.611 189.977 156.794C189.93 159.125 188.962 161.344 187.283 162.968C185.604 164.591 183.35 165.489 181.011 165.465C172.644 165.435 167.3 159.847 166.194 151.671H155.546V174.53H166.554V170.689C170.975 174.036 176.35 175.893 181.9 175.992C187.535 176.147 193.005 174.095 197.14 170.277C199.137 168.31 200.708 165.955 201.753 163.358C202.799 160.761 203.298 157.978 203.219 155.18C203.243 148.058 200.985 143.469 197.545 140.464M261.595 151.542L261.372 151.984C257.813 158.989 253.084 163.636 243.703 163.677C230.456 163.664 223.295 153.56 223.253 141.502C223.289 129.387 230.646 119.347 243.703 119.341C247.27 119.322 250.764 120.355 253.744 122.31C256.718 124.115 258.882 126.99 259.788 130.341L259.946 130.932H270.767V108.467H259.774V112.069C254.104 107.897 245.618 107.054 243.602 107.022C235.262 106.997 227.192 109.963 220.865 115.378C214.44 121.024 210.011 129.592 210.011 141.165C209.878 150.371 213.349 159.266 219.689 165.961C222.8 169.169 226.533 171.712 230.661 173.437C234.79 175.161 239.227 176.03 243.703 175.992H243.805C258.118 175.992 269.82 168.247 273.626 152.52C273.689 152.195 273.725 151.865 273.733 151.535H261.595M656.566 108.465V118.803H663.502V164.21H656.566V174.555H707.237V153.667H696.144V164.21H676.747V145.242H694.738V134.27H676.747V118.803H696.144V126.261H696.911V126.313H707.237V108.465H656.566ZM639.039 153.862V164.208H625.194V118.805H632.222V108.465H604.661V118.805H611.949V164.208H604.661V174.555H650.127V153.862H639.039ZM767.717 164.21V150.459C767.849 148.259 767.385 146.064 766.374 144.103C764.872 142.096 762.755 140.632 760.342 139.934C766.224 136.995 769.933 132.414 769.868 125.335V125.109C769.895 121.847 768.827 118.669 766.835 116.081C761.44 108.965 753.46 108.435 748.535 108.439C747.649 108.439 746.849 108.467 746.216 108.467H717.633V118.803H724.537V164.21H717.633V174.555H744.15V164.21H737.778V145.25H743.994C746.409 145.153 748.821 145.497 751.111 146.267C752.142 146.588 753.035 147.244 753.648 148.13C754.26 149.016 754.557 150.082 754.49 151.156V174.563H774V164.217L767.717 164.21ZM737.778 118.803H743.183C746.258 118.625 749.341 118.943 752.313 119.747C753.651 120.108 754.818 120.929 755.609 122.063C756.401 123.198 756.765 124.574 756.639 125.95C756.623 130.114 755.168 132.148 753.001 133.393C750.349 134.597 747.436 135.118 744.529 134.91H737.778V118.803ZM341.318 118.803V108.467H315.056V118.803H321.179V134.266H299.623V118.803H305.706V108.467H279.478V118.803H286.4V164.21H279.478V174.555H305.73V164.21H299.623V145.242H321.177V164.21H315.056V174.555H341.318V164.21H334.426V118.803H341.318ZM543.172 108.465V118.803H550.07V164.21H543.172V174.555H570.137V164.21H563.31V145.242H582.777V134.27H563.31V118.803H583.443V126.261H594.531V108.465H543.172ZM407.402 164.21L392.254 118.803H398.938V108.465H363.884V118.803H370.65L355.059 164.21H350.314V174.547H373.643V164.21H367.427L371.154 153.196H390.439L394.154 164.21H387.851V174.547H411.861V164.21H407.402ZM373.952 142.886L380.872 121.075H381.119L387.926 142.886H373.952ZM421.266 108.465V118.803H428.162V164.21H421.266V174.555H471.925V153.667H460.8V164.21H441.401V145.242H459.432V134.27H441.401V118.803H460.8V126.261H471.925V108.465H421.266ZM484.029 108.465V118.803H490.933V164.21H484.029V174.555H510.991V164.21H504.168V145.242H523.618V134.27H504.168V118.803H524.257V126.261H535.382V108.465H484.029Z" fill="white"/>
</svg>
