<svg width="221" height="221" viewBox="0 0 221 221" fill="none" xmlns="http://www.w3.org/2000/svg">
<g opacity="0.4" clip-path="url(#clip0_111_4747)">
<path d="M49.1207 0H171.534C177.491 0 183.275 0.949609 188.886 2.93516C197.001 5.87031 204.339 11.05 209.864 17.7836C215.475 24.5172 219.187 32.8047 220.482 41.4375C221 44.6316 221.086 47.8258 221.086 51.0199V170.412C221.086 174.21 220.914 178.095 220.137 181.807C218.41 190.354 214.353 198.382 208.482 204.857C202.698 211.331 195.102 216.166 186.9 218.755C181.893 220.309 176.714 221 171.448 221C169.117 221 48.7754 221 46.9625 220.914C38.1571 220.482 29.4379 217.633 22.1 212.712C14.9348 207.878 9.0645 201.145 5.26606 193.375C1.98559 186.728 0.345357 179.304 0.345357 171.879V49.1207C0.172701 41.7828 1.72661 34.5313 4.92075 27.9703C8.63286 20.2008 14.4168 13.3809 21.5821 8.54648C28.92 3.53945 37.5528 0.604297 46.3582 0.172656C47.2215 0 48.1711 0 49.1207 0Z" fill="url(#paint0_linear_111_4747)"/>
<path d="M186.469 180.771C185.692 179.562 184.829 178.354 183.879 177.232C181.721 174.642 179.217 172.397 176.455 170.498C173.002 168.167 168.944 166.7 164.8 166.527C161.865 166.354 158.93 166.872 156.168 167.908C153.405 168.858 150.729 170.239 148.139 171.62C145.118 173.174 142.096 174.728 138.902 176.023C135.104 177.577 131.132 178.786 127.075 179.649C121.982 180.598 116.802 180.944 111.709 180.857C102.471 180.685 93.2344 179.304 84.4289 176.714C76.6594 174.383 69.2352 171.189 62.2426 167.131C56.1133 163.592 50.4156 159.534 45.0633 154.959C40.6605 151.161 36.6031 147.103 32.8047 142.787C30.2148 139.765 27.7113 136.571 25.3805 133.291C24.4309 131.996 23.5676 130.614 22.7906 129.233L0 104.63V48.948C0 21.9273 21.841 0 48.8617 0H92.4574L124.744 32.8047C197.605 82.357 174.038 137.003 174.038 137.003C174.038 137.003 194.756 160.311 186.469 180.771Z" fill="url(#paint1_linear_111_4747)"/>
<path d="M124.917 32.8047C197.778 82.357 174.21 137.003 174.21 137.003C174.21 137.003 194.929 160.398 186.555 180.857C186.555 180.857 178.009 166.527 163.678 166.527C149.866 166.527 141.751 180.857 113.953 180.857C52.0559 180.857 22.7906 129.147 22.7906 129.147C78.5586 165.836 116.629 139.852 116.629 139.852C91.5078 125.262 38.0707 55.509 38.0707 55.509C84.6016 95.1336 104.716 105.579 104.716 105.579C92.7164 95.6516 59.0485 47.1352 59.0485 47.1352C85.9828 74.4148 139.506 112.486 139.506 112.486C154.7 70.3574 124.917 32.8047 124.917 32.8047Z" fill="white"/>
</g>
<defs>
<linearGradient id="paint0_linear_111_4747" x1="131.47" y1="-7.88607" x2="89.7157" y2="228.913" gradientUnits="userSpaceOnUse">
<stop stop-color="#FAAE42"/>
<stop offset="1" stop-color="#EF3E31"/>
</linearGradient>
<linearGradient id="paint1_linear_111_4747" x1="112.755" y1="3.57053" x2="82.1956" y2="176.88" gradientUnits="userSpaceOnUse">
<stop stop-color="#E39F3A"/>
<stop offset="1" stop-color="#D33929"/>
</linearGradient>
<clipPath id="clip0_111_4747">
<rect width="221" height="221" fill="white"/>
</clipPath>
</defs>
</svg>
