<svg width="216" height="216" viewBox="0 0 216 216" fill="none" xmlns="http://www.w3.org/2000/svg">
<g opacity="0.4">
<path d="M93.5989 116.279L122.759 99.36L151.558 116.279L122.759 132.84L93.5989 116.64V116.279ZM6.1189 66.2411L122.759 0L209.52 49.3189L180.721 99.36L122.762 66.2411L35.2823 115.921L6.1189 66.2411Z" fill="#F6BD3A"/>
<path d="M93.5989 182.52V149.401L122.398 132.84L151.558 116.279V149.398L122.759 165.959V199.078L93.5989 216V182.52ZM93.5989 116.279L64.4389 99.7175L35.2789 115.918V82.7987L122.759 33.1187V99.3598L93.5989 116.279ZM180.36 82.7987V66.2375L209.52 49.3187L209.881 82.4375L180.721 99.3564L180.36 82.7987Z" fill="#EB8C23"/>
<path d="M64.4389 198.359V99.7209L93.2378 83.5209L93.5989 116.282L122.759 132.482V165.962L93.5989 150.481V216L64.4389 198.359ZM20.52 107.281L6.1189 98.6409V66.2409L35.2789 82.802V115.921L20.52 107.281ZM122.759 66.2409V33.1187L180.36 66.2375L180.721 99.3564L122.762 66.2375L122.759 66.2409Z" fill="#E35A2B"/>
</g>
</svg>
